<svg xmlns="http://www.w3.org/2000/svg" width="16" height="17" fill="none" viewBox="0 0 16 17"><path fill="#FCFCFC" fill-rule="evenodd" d="M1.16667 2.10791c-.3682 0-.66667.29848-.66667.66667 0 .36819.29848.66666.66667.66666h1.77127l.46743 2.33539a.66396.66396 0 0 0 .01063.0531l.96738 4.83337.00012.0005c.08356.42.31212.7973.64571 1.0658.3319.2672.74674.4098 1.17262.4033h5.62067a1.82558 1.82558 0 0 0 1.8185-1.4696l.001-.005.9271-4.86147a.6669.6669 0 0 0-.1412-.54985.66678.66678 0 0 0-.5137-.24171H4.61072L4.1381 2.64374c-.06236-.31157-.33595-.53583-.6537-.53583H1.16667Zm4.52431 8.29439-.81339-4.06389h8.23081l-.7756 4.06689a.49221.49221 0 0 1-.1737.2855.49201.49201 0 0 1-.3181.1087v-.0001H6.19614v-.0001l-.01277.0002a.4919.4919 0 0 1-.31807-.1087.49205.49205 0 0 1-.17413-.2875l-.00019-.001Zm-1.13359 3.961c0-.6879.55771-1.2456 1.24568-1.2456.68798 0 1.24569.5577 1.24569 1.2456 0 .688-.55771 1.2457-1.24569 1.2457-.68797 0-1.24568-.5577-1.24568-1.2457Zm6.37331 0c0-.6879.5577-1.2456 1.2457-1.2456.688 0 1.2457.5577 1.2457 1.2456 0 .688-.5577 1.2457-1.2457 1.2457-.688 0-1.2457-.5577-1.2457-1.2457Z" clip-rule="evenodd"/></svg>