<svg xmlns="http://www.w3.org/2000/svg" width="16" height="17" fill="none" viewBox="0 0 16 17"><path fill="#FCFCFC" fill-rule="evenodd" d="M9 2.52458c0-.36819.29848-.66667.66667-.66667h2.66663a1.9997 1.9997 0 0 1 1.4142.58579 1.9999 1.9999 0 0 1 .5858 1.41421v9.33329c0 .5305-.2107 1.0392-.5858 1.4143-.375.375-.8837.5857-1.4142.5857H9.66667c-.36819 0-.66667-.2984-.66667-.6666 0-.3682.29848-.6667.66667-.6667h2.66663c.1768 0 .3464-.0702.4714-.1953A.66618.66618 0 0 0 13 13.1912V3.85791a.66637.66637 0 0 0-.1953-.4714.66662.66662 0 0 0-.4714-.19527H9.66667C9.29848 3.19124 9 2.89277 9 2.52458ZM5.86189 4.71984c.26035-.26035.68246-.26035.94281 0l3.3291 3.3291a.6892.6892 0 0 1 .0486.05313.66273.66273 0 0 1 .0804.12379c.0451.08986.0705.19132.0705.29872 0 .10862-.0259.21118-.072.30179a.6671.6671 0 0 1-.0737.11432.66753.66753 0 0 1-.0541.05978L6.8047 12.3293c-.26035.2604-.68246.2604-.94281 0-.26035-.2603-.26035-.6824 0-.9428l2.19526-2.19526H1.66667C1.29848 9.19124 1 8.89277 1 8.52458s.29848-.66667.66667-.66667h6.39048L5.86189 5.66265c-.26035-.26035-.26035-.68246 0-.94281Z" clip-rule="evenodd"/></svg>