<svg xmlns="http://www.w3.org/2000/svg" width="16" height="16" fill="none" viewBox="0 0 16 16"><path fill="#2D3440" d="M13.8911 2.99447a3.66728 3.66728 0 0 0-1.1897-.79528 3.66685 3.66685 0 0 0-1.4036-.27927c-.4817 0-.9586.0949-1.40357.27927a3.666789 3.666789 0 0 0-1.18976.79528l-.70667.70667-.70667-.70667c-.68779-.68779-1.62064-1.07419-2.59333-1.07419-.97269 0-1.90554.3864-2.59333 1.07419-.6878.6878-1.0742 1.62065-1.0742 2.59334 0 .97268.3864 1.90553 1.0742 2.59333l.70666.70667L7.9978 14.0745l5.1867-5.18669.7066-.70667c.3407-.3405.6109-.74479.7953-1.18976a3.66628 3.66628 0 0 0 .2793-1.40357c0-.48166-.0949-.9586-.2793-1.40357-.1844-.44498-.4546-.84926-.7953-1.18977Z"/></svg>