<svg width="16" height="17" viewBox="0 0 16 17" fill="none" xmlns="http://www.w3.org/2000/svg">
<path fill-rule="evenodd" clip-rule="evenodd" d="M2.66341 8.18799C2.66341 5.61066 4.75275 3.52132 7.33008 3.52132C9.90741 3.52132 11.9967 5.61066 11.9967 8.18799C11.9967 9.44526 11.4995 10.5864 10.691 11.4255C10.6682 11.4431 10.6462 11.4623 10.6253 11.4833C10.6044 11.5042 10.5852 11.5261 10.5676 11.549C9.72847 12.3575 8.58734 12.8547 7.33008 12.8547C4.75275 12.8547 2.66341 10.7653 2.66341 8.18799ZM11.0752 12.8759C10.0487 13.697 8.74675 14.188 7.33008 14.188C4.01637 14.188 1.33008 11.5017 1.33008 8.18799C1.33008 4.87428 4.01637 2.18799 7.33008 2.18799C10.6438 2.18799 13.3301 4.87428 13.3301 8.18799C13.3301 9.60467 12.8391 10.9067 12.018 11.9331L14.4681 14.3833C14.7285 14.6436 14.7285 15.0657 14.4681 15.3261C14.2078 15.5864 13.7857 15.5864 13.5253 15.3261L11.0752 12.8759Z" fill="#FCFCFC"/>
</svg>
