<svg xmlns="http://www.w3.org/2000/svg" width="28" height="28" fill="none" viewBox="0 0 28 28"><path fill="#FCFCFC" fill-rule="evenodd" d="M26 14c0 6.6274-5.3726 12-12 12-6.62742 0-12-5.3726-12-12C2 7.37258 7.37258 2 14 2c6.6274 0 12 5.37258 12 12Zm-11.4116 2.9749h-.7173s-1.5826.0835-2.9763-1.1882c-1.51994-1.3872-2.86231-4.1397-2.86231-4.1397s-.07738-.1805.00668-.2677c.09449-.0981.35189-.1044.35189-.1044l1.71464-.0098s.1616.0237.2772.0981c.0953.0614.1488.1762.1488.1762s.2771.6142.6441 1.1699c.7163 1.0849 1.05 1.3222 1.2932 1.2059.3543-.1694.2481-1.5336.2481-1.5336s.0065-.4951-.1784-.7156c-.1432-.1709-.4133-.2207-.5325-.2347-.0965-.0113.0619-.2076.2671-.2957.3086-.1325.8535-.1401 1.4973-.1342.5016.0044.6459.0318.8421.0734.455.0963.4409.4048.4102 1.0706-.0091.199-.0197.4298-.0197.6964 0 .06-.002.1239-.0041.1897-.0106.341-.0228.7314.2333.8765.1313.0742.4525.0111 1.256-1.1847.3809-.5667.6665-1.2331.6665-1.2331s.0624-.1187.1593-.1697c.0992-.052.233-.036.233-.036l1.8043-.0099s.5422-.0566.63.1578c.092.2252-.2027.7509-.9398 1.612-.6954.8123-1.0357 1.1143-1.0089 1.3792.0199.1962.2411.3721.6687.72.8882.7225 1.1249 1.1019 1.1812 1.1921a.44744.44744 0 0 0 .0103.0162c.3975.5777-.4408.623-.4408.623l-1.6025.0195s-.3444.0599-.7976-.213c-.237-.1426-.4688-.3754-.6895-.5972-.3375-.3391-.6495-.6526-.9157-.5786-.4467.1242-.4326.9678-.4326.9678s.0032.1802-.0986.2761c-.1106.1045-.3273.1254-.3273.1254Z" clip-rule="evenodd"/><rect width="26" height="26" x="1" y="1" stroke="#FCFCFC" stroke-opacity=".3" stroke-width="2" rx="13"/></svg>