<svg xmlns="http://www.w3.org/2000/svg" width="28" height="28" fill="none" viewBox="0 0 28 28"><path fill="#FCFCFC" d="m16.0037 13.7913-2.8074-1.31c-.245-.1138-.4463.0137-.4463.2849v2.4676c0 .2712.2013.3987.4463.285l2.8062-1.3101c.2463-.1149.2462-.3024.0012-.4174ZM14 2C7.3725 2 2 7.3725 2 14s5.3725 12 12 12 12-5.3725 12-12S20.6275 2 14 2Zm0 16.875c-6.1425 0-6.25-.5537-6.25-4.875 0-4.32125.1075-4.875 6.25-4.875s6.25.55375 6.25 4.875c0 4.3213-.1075 4.875-6.25 4.875Z"/><rect width="26" height="26" x="1" y="1" stroke="#FCFCFC" stroke-opacity=".3" stroke-width="2" rx="13"/></svg>